<?xml version="1.0" encoding="UTF-8"?>
<svg width="295px" height="258px" viewBox="0 0 295 258" version="1.1" xmlns="http://www.w3.org/2000/svg" xmlns:xlink="http://www.w3.org/1999/xlink">
    <!-- Generator: Sketch 53 (72520) - https://sketchapp.com -->
    <title>86_arrow</title>
    <desc>Created with Sketch.</desc>
    <g id="Page-1" stroke="none" stroke-width="1" fill="none" fill-rule="evenodd">
        <g id="4" transform="translate(-336.000000, -277.000000)" fill="#39398C">
            <path d="M511,324 L511,277 L631,406 L511,535 L511,490 L336,490 L336,324 L511,324 Z M417,406 C417,422.046999 423.196317,436.64677 433.326852,447.537218 C429.239885,459.252562 423.445564,466.674998 417,466.988229 L417,466.9971 C428.038538,466.921769 438.38057,463.914459 447.286222,458.715043 C456.306653,463.982041 466.800885,467 478,467 C511.68937,467 539,439.68937 539,406 C539,372.31063 511.68937,345 478,345 C444.31063,345 417,372.31063 417,406 Z M460.592928,387 C467.976151,387 474.037007,390.273232 474.037007,397.707351 C474.037007,401.036061 472.108553,403.920943 469.29852,405.474341 C473.375822,407.416089 476.185855,410.855756 476.185855,415.127601 C476.185855,423.116505 469.188322,427 460.592928,427 C451.997533,427 445,423.116505 445,415.127601 C445,410.855756 447.754934,407.416089 451.832237,405.474341 C449.077303,403.976422 447.148849,401.036061 447.148849,397.707351 C447.148849,390.273232 453.209704,387 460.592928,387 Z M460.592928,393.158114 C457.011513,393.158114 454.036184,394.656033 454.036184,397.929265 C454.036184,401.09154 456.846217,402.755895 460.592928,402.755895 C464.339638,402.755895 467.094572,401.09154 467.094572,397.929265 C467.094572,394.656033 464.174342,393.158114 460.592928,393.158114 Z M460.592928,420.398058 C465.000822,420.398058 468.582237,418.511789 468.582237,414.905687 C468.582237,411.355062 465.166118,409.246879 460.592928,409.246879 C456.019737,409.246879 452.603618,411.355062 452.603618,414.905687 C452.603618,418.511789 456.185033,420.398058 460.592928,420.398058 Z M498.280428,401.202497 C504.561678,401.202497 512,404.808599 512,413.796117 C512,422.117892 504.947368,427 496.186678,427 C487.591283,427 480.648849,419.676838 480.648849,409.413315 C480.648849,392.991678 487.866776,387 496.958059,387 C502.853618,387 506.710526,388.664355 510.291941,391.105409 L506.875822,396.930652 C504.45148,395.15534 501.310855,393.879334 497.453947,393.879334 C491.393092,393.879334 488.362664,399.538141 488.362664,404.919556 C489.960526,402.811373 493.872533,401.202497 498.280428,401.202497 Z M496.351974,407.083218 C492.164474,407.083218 488.472862,409.635229 488.472862,413.629681 C488.472862,417.180305 491.999178,420.287101 496.186678,420.287101 C500.759868,420.287101 504.341283,417.679612 504.341283,413.68516 C504.341283,409.57975 500.759868,407.083218 496.351974,407.083218 Z M520.540804,417.552011 C520.540804,419.787795 519.079172,421.104022 517.270402,421.104022 C515.461632,421.104022 514,419.787795 514,417.552011 C514,415.298197 515.461632,414 517.270402,414 C519.079172,414 520.540804,415.298197 520.540804,417.552011 Z M515.680877,417.552011 C515.680877,418.669903 516.393423,419.445215 517.270402,419.445215 C518.147381,419.445215 518.859927,418.669903 518.859927,417.552011 C518.859927,416.416089 518.147381,415.640777 517.270402,415.640777 C516.393423,415.640777 515.680877,416.416089 515.680877,417.552011 Z M525.729598,419.914008 C527.538368,419.914008 529,421.212205 529,423.466019 C529,425.701803 527.538368,427 525.729598,427 C523.920828,427 522.459196,425.701803 522.459196,423.466019 C522.459196,421.212205 523.920828,419.914008 525.729598,419.914008 Z M525.729598,425.359223 C526.606577,425.359223 527.319123,424.583911 527.319123,423.466019 C527.319123,422.330097 526.606577,421.554785 525.729598,421.554785 C524.852619,421.554785 524.140073,422.330097 524.140073,423.466019 C524.140073,424.583911 524.852619,425.359223 525.729598,425.359223 Z M524.962241,414.216366 L526.825822,414.216366 L518.001218,426.855756 L516.137637,426.855756 L524.962241,414.216366 Z" id="86_arrow"></path>
        </g>
    </g>
</svg>