<?xml version="1.0" encoding="UTF-8"?>
<svg width="128px" height="128px" viewBox="0 0 128 128" version="1.1" xmlns="http://www.w3.org/2000/svg" xmlns:xlink="http://www.w3.org/1999/xlink">
    <!-- Generator: Sketch 53 (72520) - https://sketchapp.com -->
    <title>eightysix_square</title>
    <desc>Created with Sketch.</desc>
    <g id="Page-1" stroke="none" stroke-width="1" fill="none" fill-rule="evenodd">
        <g id="Artboard" transform="translate(-305.000000, -62.000000)" fill="#EF5350">
            <path d="M305,126 C305,90.653776 333.653776,62 369,62 C404.346224,62 433,90.653776 433,126 C433,161.346224 404.346224,190 369,190 C357.250109,190 346.239767,186.833617 336.775708,181.307586 C327.432073,186.762711 316.581417,189.917922 305,189.996957 L305,189.98765 C311.762559,189.659015 317.841847,181.87154 322.129812,169.580032 C311.501053,158.153989 305,142.836196 305,126 Z M350.665451,105.089109 C342.844711,105.089109 336.4247,108.511418 336.4247,116.284121 C336.4247,119.764436 338.467431,122.838714 341.385618,124.404856 C337.066701,126.435039 334.148515,130.031365 334.148515,134.497769 C334.148515,142.850524 341.560709,146.910891 350.665451,146.910891 C359.770193,146.910891 367.182387,142.850524 367.182387,134.497769 C367.182387,130.031365 364.205836,126.435039 359.88692,124.404856 C362.863471,122.780709 364.906201,119.764436 364.906201,116.284121 C364.906201,108.511418 358.486191,105.089109 350.665451,105.089109 Z M350.665451,111.527691 C354.459093,111.527691 357.552371,113.093833 357.552371,116.516142 C357.552371,119.822441 354.634184,121.562599 350.665451,121.562599 C346.696717,121.562599 343.720167,119.822441 343.720167,116.516142 C343.720167,113.093833 346.871808,111.527691 350.665451,111.527691 Z M350.665451,140.008267 C345.996352,140.008267 342.20271,138.036088 342.20271,134.265748 C342.20271,130.553412 345.821261,128.349212 350.665451,128.349212 C355.50964,128.349212 359.128192,130.553412 359.128192,134.265748 C359.128192,138.036088 355.334549,140.008267 350.665451,140.008267 Z M390.586243,119.938452 C385.917144,119.938452 381.773319,121.620604 380.080771,123.824803 C380.080771,118.198294 383.290776,112.281759 389.710787,112.281759 C393.796248,112.281759 397.122981,113.61588 399.690985,115.472048 L403.309536,109.381497 C399.515894,106.829266 395.430433,105.089109 389.185513,105.089109 C379.555498,105.089109 371.909849,111.353675 371.909849,128.523228 C371.909849,139.254199 379.263679,146.910891 388.368421,146.910891 C397.648254,146.910891 405.118812,141.806429 405.118812,133.105643 C405.118812,123.708793 397.239708,119.938452 390.586243,119.938452 Z M388.543512,126.087008 C393.212611,126.087008 397.006253,128.697244 397.006253,132.989632 C397.006253,137.16601 393.212611,139.892256 388.368421,139.892256 C383.932777,139.892256 380.197499,136.643963 380.197499,132.931627 C380.197499,128.755249 384.107869,126.087008 388.543512,126.087008 Z M414.284934,138.046635 C414.284934,135.62975 412.803041,134.237624 410.9692,134.237624 C409.135358,134.237624 407.653465,135.62975 407.653465,138.046635 C407.653465,140.444185 409.135358,141.855646 410.9692,141.855646 C412.803041,141.855646 414.284934,140.444185 414.284934,138.046635 Z M409.357642,138.046635 C409.357642,136.828525 410.080064,135.997116 410.9692,135.997116 C411.858335,135.997116 412.580758,136.828525 412.580758,138.046635 C412.580758,139.24541 411.858335,140.076819 410.9692,140.076819 C410.080064,140.076819 409.357642,139.24541 409.357642,138.046635 Z M419.545652,140.579531 C417.71181,140.579531 416.229918,141.971657 416.229918,144.388542 C416.229918,146.786092 417.71181,148.178218 419.545652,148.178218 C421.379494,148.178218 422.861386,146.786092 422.861386,144.388542 C422.861386,141.971657 421.379494,140.579531 419.545652,140.579531 Z M419.545652,146.418725 C418.656516,146.418725 417.934094,145.587317 417.934094,144.388542 C417.934094,143.170432 418.656516,142.339023 419.545652,142.339023 C420.434787,142.339023 421.15721,143.170432 421.15721,144.388542 C421.15721,145.587317 420.434787,146.418725 419.545652,146.418725 Z M418.767658,134.469645 L409.820733,148.023537 L411.710146,148.023537 L420.657071,134.469645 L418.767658,134.469645 Z" id="eightysix_square"></path>
        </g>
    </g>
</svg>