<?xml version="1.0" encoding="UTF-8"?>
<svg width="128px" height="48px" viewBox="0 0 128 48" version="1.1" xmlns="http://www.w3.org/2000/svg" xmlns:xlink="http://www.w3.org/1999/xlink">
    <!-- Generator: Sketch 53 (72520) - https://sketchapp.com -->
    <title>eightysix_long</title>
    <desc>Created with Sketch.</desc>
    <g id="Page-1" stroke="none" stroke-width="1" fill="none" fill-rule="evenodd">
        <g id="Artboard" transform="translate(-17.000000, -14.000000)" fill="#FC5D60">
            <path d="M23.7867066,54.7243319 C19.5864249,50.4020251 17,44.5030585 17,38 C17,24.745166 27.745166,14 41,14 L121,14 C134.254834,14 145,24.745166 145,38 C145,51.254834 134.254834,62 121,62 L41,62 C36.6966834,62 32.6578965,60.8674141 29.1654624,58.8840657 C25.7185387,60.8413491 21.7394667,61.9699217 17.499171,61.998859 L17.499171,61.9953689 C19.9643795,61.8755688 22.1874589,59.1125984 23.7867066,54.7243319 Z M44.0954254,39.8463729 C44.0954254,39.6486282 44.1177829,39.4069402 44.1177829,39.1652523 C44.1177829,35.452046 41.9491022,32.7934783 38.2153942,32.7934783 C34.5487588,32.7934783 32,35.5399326 32,38.9675076 C32,42.3731109 34.5487588,45.1195652 38.2153942,45.1195652 C40.5852927,45.1195652 42.5751131,44.1528133 43.6929898,42.6587422 L41.7031693,41.0328412 C41.0324433,41.9336782 39.8474941,42.5049407 38.5731147,42.5049407 C36.7174395,42.5049407 35.4430601,41.406359 35.1076971,39.8463729 L44.0954254,39.8463729 Z M38.0219185,35.3043478 C40.0771054,35.3043478 40.8063652,36.6399569 40.9168591,38.0434783 L34.9722864,38.0434783 C35.2595706,36.5267697 36.4087073,35.3043478 38.0219185,35.3043478 Z M46.404157,44.8913043 L49.3764434,44.8913043 L49.3764434,33.0217391 L46.404157,33.0217391 L46.404157,44.8913043 Z M47.6724476,31.6521739 C48.6215086,31.6521739 49.3764434,30.8455588 49.3764434,29.8372899 C49.3764434,28.8290211 48.6215086,28 47.6724476,28 C46.7233866,28 45.9468822,28.8290211 45.9468822,29.8372899 C45.9468822,30.8455588 46.7233866,31.6521739 47.6724476,31.6521739 Z M60.9534109,33.011895 L60.9534109,33.6889869 C59.9641144,33.1211034 58.7329899,32.7934783 57.479881,32.7934783 C54.1382572,32.7934783 51.4341801,35.1086957 51.4341801,38.6470468 C51.4341801,42.1635562 54.1382572,44.5442986 57.479881,44.5442986 C58.7110055,44.5442986 59.8541926,44.2385152 60.8215047,43.714315 C60.7335672,45.5708573 58.8648961,46.6629409 57.0401936,46.6629409 C55.3913661,46.6629409 54.2921478,46.3134742 52.9950702,45.9640074 L52.4014923,48.2136998 C54.2481791,48.7378999 54.8197726,49 57.7656777,49 C62.2944573,49 64.0092379,45.658224 64.0092379,42.6003897 L64.0092379,33.011895 L60.9534109,33.011895 Z M54.4064665,38.5 C54.4064665,36.6802536 55.9520863,35.3043478 58.035313,35.3043478 C59.2225282,35.3043478 60.2753417,35.6594203 61.0369515,36.2807971 L61.0369515,40.7192029 C60.297742,41.3405797 59.2225282,41.6956522 58.035313,41.6956522 C55.9520863,41.6956522 54.4064665,40.4085145 54.4064665,38.5 Z M73.2734841,32.6702658 C72.0549707,32.6702658 70.9472313,32.9575597 70.0610398,33.5100479 L70.0610398,28.2282609 L66.9815242,28.2282609 L66.9815242,44.8913043 L70.0610398,44.8913043 L70.0610398,36.3387873 C70.7478382,35.7641996 71.6340298,35.4327067 72.7196144,35.4327067 C74.4255331,35.4327067 75.3338794,36.3387873 75.3338794,38.1951476 L75.3338794,44.8913043 L78.4133949,44.8913043 L78.4133949,38.1951476 C78.4133949,34.3056308 76.7960954,32.6702658 73.2734841,32.6702658 Z M88.0161663,35.3570695 L88.0161663,32.8423057 L84.6256407,32.8423057 L84.6256407,28.2282609 L81.5027883,28.2282609 L81.5027883,32.8423057 L79.7852194,32.8423057 L79.7852194,35.3570695 L81.5027883,35.3570695 L81.5027883,41.1519599 C81.5027883,43.6448562 83.1311328,44.8913043 85.1609869,44.8913043 C86.9008618,44.8913043 87.8377176,44.4976891 87.9715541,44.4539541 L87.9715541,42.179733 C87.5477384,42.223468 87.0793105,42.2890705 86.5439644,42.2890705 C84.9825382,42.2890705 84.6256407,41.6767802 84.6256407,39.5556316 L84.6256407,35.3570695 L88.0161663,35.3570695 Z M98.8171234,33.0217391 L95.7371967,41.0873729 L95.517202,41.0873729 L92.3712769,33.0217391 L89.1593533,33.0217391 L93.8232423,44.8906798 L94.087236,44.8906798 C93.4052523,46.2677392 91.9312874,46.6830429 90.2813266,46.6830429 L89.9513345,46.6830429 L89.5773434,48.9781419 C89.9073355,49 90.2593272,49 90.6553177,49 C93.163258,49 95.979191,48.2131089 97.0351658,45.5245643 L101.963048,33.0217391 L98.8171234,33.0217391 Z M103.56351,43.8193451 C104.932181,44.3881398 106.609907,44.8913043 108.464235,44.8913043 C111.885912,44.8913043 113.166282,43.2724271 113.166282,41.5441662 C113.166282,39.5752614 111.245727,38.8095762 108.48631,38.2845349 C106.013873,37.8032471 104.556901,37.2344524 104.556901,35.8999725 C104.556901,34.5217391 106.102174,33.5372867 108.11103,33.5372867 C109.545927,33.5372867 110.936673,33.7779307 112.194967,34.3467254 L112.459871,33.6904238 C111.069125,33.0997523 109.612153,32.7934783 108.11103,32.7934783 C105.660667,32.7934783 103.784264,34.1060815 103.784264,35.8999725 C103.784264,37.737617 105.682743,38.5033021 108.309708,39.0283434 C110.649693,39.5096313 112.393645,40.1003027 112.393645,41.5660429 C112.393645,42.8786461 111.37818,44.1474959 108.48631,44.1474959 C106.764434,44.1474959 105.17501,43.666208 103.872565,43.1630435 L103.56351,43.8193451 Z M115.994984,44.8913043 L116.739427,44.8913043 L116.739427,33.0217391 L115.994984,33.0217391 L115.994984,44.8913043 Z M116.367206,29.1413043 C115.978522,29.1413043 115.681293,29.4246627 115.681293,29.826087 C115.681293,30.2275112 115.978522,30.5108696 116.367206,30.5108696 C116.755889,30.5108696 117.053118,30.2275112 117.053118,29.826087 C117.053118,29.4246627 116.755889,29.1413043 116.367206,29.1413043 Z M125.272966,39.5841333 L130.001099,44.8913043 L131,44.8913043 L125.783515,38.945511 L130.977802,33.0217391 L129.978901,33.0217391 L125.272966,38.3509317 L120.567031,33.0217391 L119.568129,33.0217391 L124.784614,38.945511 L119.568129,44.8913043 L120.544833,44.8913043 L125.272966,39.5841333 Z M134.616322,41.3661581 C134.616322,40.4993065 134.031669,40 133.308161,40 C132.584653,40 132,40.4993065 132,41.3661581 C132,42.2260749 132.584653,42.7323162 133.308161,42.7323162 C134.031669,42.7323162 134.616322,42.2260749 134.616322,41.3661581 Z M132.672351,41.3661581 C132.672351,40.9292649 132.957369,40.631068 133.308161,40.631068 C133.658952,40.631068 133.943971,40.9292649 133.943971,41.3661581 C133.943971,41.7961165 133.658952,42.0943135 133.308161,42.0943135 C132.957369,42.0943135 132.672351,41.7961165 132.672351,41.3661581 Z M136.691839,42.2746186 C135.968331,42.2746186 135.383678,42.7739251 135.383678,43.6407767 C135.383678,44.5006935 135.968331,45 136.691839,45 C137.415347,45 138,44.5006935 138,43.6407767 C138,42.7739251 137.415347,42.2746186 136.691839,42.2746186 Z M136.691839,44.368932 C136.341048,44.368932 136.056029,44.0707351 136.056029,43.6407767 C136.056029,43.2038835 136.341048,42.9056865 136.691839,42.9056865 C137.042631,42.9056865 137.327649,43.2038835 137.327649,43.6407767 C137.327649,44.0707351 137.042631,44.368932 136.691839,44.368932 Z M136.384896,40.0832178 L132.855055,44.9445215 L133.600487,44.9445215 L137.130329,40.0832178 L136.384896,40.0832178 Z" id="eightysix_long"></path>
        </g>
    </g>
</svg>