<?xml version="1.0" encoding="UTF-8"?>
<svg width="559px" height="435px" viewBox="0 0 559 435" version="1.1" xmlns="http://www.w3.org/2000/svg" xmlns:xlink="http://www.w3.org/1999/xlink">
    <!-- Generator: Sketch 53 (72520) - https://sketchapp.com -->
    <title>stars</title>
    <desc>Created with Sketch.</desc>
    <g id="Page-1" stroke="none" stroke-width="1" fill="none" fill-rule="evenodd">
        <g id="Artboard" transform="translate(-107.000000, -273.000000)">
            <g id="Group-74" transform="translate(65.000000, 156.000000)">
                <g id="stars" transform="translate(8.000000, 87.152000)">
                    <path d="M406,30.3476717 C406,30.6240998 405.7761,30.848 405.499672,30.848 C405.223244,30.848 405,30.6240998 405,30.3476717 C405,30.0719002 405.223244,29.848 405.499672,29.848 C405.7761,29.848 406,30.0719002 406,30.3476717" id="Fill-3" fill="#F8C2D9"></path>
                    <path d="M36,161.848429 C36,162.400508 35.5525075,162.848 35.0004286,162.848 C34.4474925,162.848 34,162.400508 34,161.848429 C34,161.295492 34.4474925,160.848 35.0004286,160.848 C35.5525075,160.848 36,161.295492 36,161.848429" id="Fill-7" fill="#FFFFFF"></path>
                    <path d="M462,463.847246 C462,464.400374 461.551789,464.848 461.000377,464.848 C460.446704,464.848 460,464.400374 460,463.847246 C460,463.295626 460.446704,462.848 461.000377,462.848 C461.551789,462.848 462,463.295626 462,463.847246" id="Fill-9" fill="#FFFFFF"></path>
                    <path d="M443,133.848 C443,134.400727 442.552727,134.848 442,134.848 C441.448,134.848 441,134.400727 441,133.848 C441,133.296 441.448,132.848 442,132.848 C442.552727,132.848 443,133.296 443,133.848" id="Fill-11" fill="#FFFFFF"></path>
                    <path d="M362,302.848 C362,303.953 361.104,304.848 360,304.848 C358.896,304.848 358,303.953 358,302.848 C358,301.744 358.896,300.848 360,300.848 C361.104,300.848 362,301.744 362,302.848" id="Fill-13" fill="#FFFFFF"></path>
                    <path d="M368,141.848459 C368,142.400595 367.552595,142.848 367.000459,142.848 C366.448323,142.848 366,142.400595 366,141.848459 C366,141.295405 366.448323,140.848 367.000459,140.848 C367.552595,140.848 368,141.295405 368,141.848459" id="Fill-15" fill="#F8C2D9"></path>
                    <path d="M100.499672,72.848 C100.7761,72.848 101,73.0719002 101,73.3483283 C101,73.6247564 100.7761,73.848 100.499672,73.848 C100.2239,73.848 100,73.6247564 100,73.3483283 C100,73.0719002 100.2239,72.848 100.499672,72.848" id="Fill-17" fill="#F8C2D9"></path>
                    <path d="M525,52.2043193 C525,51.7293747 525.380155,51.2604169 525.845122,51.1616364 L527.216075,50.8712816 C527.681042,50.7725011 528.119069,50.3075344 528.189911,49.8375787 L528.362528,48.702102 C528.43337,48.2331441 528.881375,47.848 529.356319,47.848 L529.643681,47.848 C530.119623,47.848 530.56663,48.2331441 530.637472,48.702102 L530.810089,49.8375787 C530.881929,50.3075344 531.319956,50.7725011 531.784922,50.8712816 L533.154878,51.1616364 C533.619845,51.2604169 534,51.7293747 534,52.2043193 L534,52.4926785 C534,52.9676231 533.619845,53.4365809 533.154878,53.5353614 L531.784922,53.8257162 C531.319956,53.9244967 530.881929,54.3884656 530.810089,54.8584213 L530.637472,55.993898 C530.56663,56.4638537 530.119623,56.848 529.643681,56.848 L529.356319,56.848 C528.881375,56.848 528.43337,56.4638537 528.362528,55.993898 L528.189911,54.8584213 C528.119069,54.3884656 527.681042,53.9244967 527.215078,53.8257162 L525.845122,53.5353614 C525.380155,53.4365809 525,52.9676231 525,52.4926785 L525,52.2043193 Z" id="Fill-19" fill="#F8C2D9"></path>
                    <path d="M556,358.687667 C556,358.160154 556.422689,357.638578 556.939418,357.528721 L558.459909,357.208055 C558.977628,357.098198 559.46466,356.581571 559.543853,356.059995 L559.734904,354.797129 C559.815086,354.275553 560.311028,353.848 560.839636,353.848 L561.159374,353.848 C561.686993,353.848 562.183924,354.275553 562.263116,354.797129 L562.455157,356.059995 C562.53435,356.581571 563.021382,357.098198 563.538111,357.207066 L565.059592,357.52971 C565.577311,357.638578 566,358.160154 566,358.687667 L566,359.006353 C566,359.533867 565.577311,360.056432 565.059592,360.1653 L563.538111,360.487945 C563.021382,360.597802 562.53435,361.114429 562.455157,361.636005 L562.263116,362.898871 C562.183924,363.420447 561.686993,363.848 561.159374,363.848 L560.839636,363.848 C560.311028,363.848 559.815086,363.420447 559.734904,362.898871 L559.543853,361.636005 C559.46466,361.114429 558.977628,360.597802 558.460899,360.487945 L556.938428,360.1653 C556.422689,360.056432 556,359.533867 556,359.006353 L556,358.687667 Z" id="Fill-21" fill="#F8C2D9"></path>
                    <path d="M593,429.348 C593,429.624903 592.7761,429.848 592.499672,429.848 C592.223244,429.848 592,429.624903 592,429.348 C592,429.072409 592.223244,428.848 592.499672,428.848 C592.7761,428.848 593,429.072409 593,429.348" id="Fill-23" fill="#F8C2D9"></path>
                    <g id="Group-50" transform="translate(62.000000, 45.848000)">
                        <path d="M333.695252,116.508871 C334.412868,116.508871 334.99538,117.090184 334.99538,117.806549 C334.99538,118.52585 334.412868,119.106184 333.695252,119.106184 C332.978615,119.106184 332.396102,118.52585 332.396102,117.806549 C332.396102,117.090184 332.978615,116.508871 333.695252,116.508871" id="Fill-40" fill="#FFFFFF"></path>
                        <path d="M1.22216975,181.989824 C1.81055617,181.989824 2.28733519,182.466422 2.28733519,183.054585 C2.28733519,183.642748 1.81055617,184.120325 1.22216975,184.120325 C0.632804321,184.120325 0.156025309,183.642748 0.156025309,183.054585 C0.156025309,182.466422 0.632804321,181.989824 1.22216975,181.989824" id="Fill-42" fill="#FF5C5C"></path>
                        <path d="M454.769611,91.3432217 C454.769611,91.0966043 454.966392,90.8539014 455.208208,90.8020334 L455.917992,90.6513227 C456.159808,90.6004334 456.386939,90.3596878 456.423163,90.1160062 L456.513232,89.5268645 C456.549455,89.2831829 456.78246,89.0835402 457.029171,89.0835402 L457.177981,89.0835402 C457.424692,89.0835402 457.656718,89.2831829 457.692942,89.5268645 L457.783011,90.1160062 C457.819234,90.3596878 458.047344,90.6004334 458.28916,90.6513227 L458.998944,90.8020334 C459.24076,90.8539014 459.438521,91.0966043 459.438521,91.3432217 L459.438521,91.4919751 C459.438521,91.7385926 459.24076,91.9812955 458.998944,92.0331635 L458.28916,92.1838742 C458.047344,92.2347635 457.819234,92.4755091 457.783011,92.7191907 L457.692942,93.3083324 C457.656718,93.552014 457.424692,93.7516567 457.177981,93.7516567 L457.029171,93.7516567 C456.78246,93.7516567 456.549455,93.552014 456.513232,93.3083324 L456.423163,92.7191907 C456.386939,92.4755091 456.159808,92.2347635 455.917992,92.1828955 L455.208208,92.0331635 C454.966392,91.9822742 454.769611,91.7385926 454.769611,91.4919751 L454.769611,91.3432217 Z" id="Fill-44" fill="#FFFFFF"></path>
                        <path d="M261.926206,6.44907029 L260.416569,4.94000621 L261.926206,3.43094214 L263.436822,4.94000621 L261.926206,6.44907029 Z M266.270084,3.76270136 L263.103958,0.597777087 C262.453894,-0.0520403883 261.399498,-0.0520403883 260.748455,0.597777087 L257.582329,3.76270136 C256.932264,4.41251883 256.932264,5.46749359 257.582329,6.11731107 L260.748455,9.28223534 C261.399498,9.93205282 262.453894,9.93205282 263.103958,9.28223534 L266.270084,6.11731107 C266.921127,5.46749359 266.921127,4.41251883 266.270084,3.76270136 L266.270084,3.76270136 Z" id="Fill-46" fill="#FFFFFF"></path>
                        <path d="M30.021678,61.7871938 L29.0779101,60.8437841 L30.021678,59.9003744 L30.9664249,60.8437841 L30.021678,61.7871938 Z M32.7355002,60.1078462 L30.7578953,58.1300132 C30.3516052,57.7238773 29.6927299,57.7238773 29.2854607,58.1300132 L27.3078558,60.1078462 C26.9005867,60.5149608 26.9005867,61.173586 27.3078558,61.5797219 L29.2854607,63.557555 C29.6927299,63.9636909 30.3516052,63.9636909 30.7578953,63.557555 L32.7355002,61.5797219 C33.1427694,61.173586 33.1427694,60.5149608 32.7355002,60.1078462 L32.7355002,60.1078462 Z" id="Fill-48" fill="#FFFFFF"></path>
                    </g>
                    <rect id="Rectangle" x="0" y="0.677887379" width="600" height="435"></rect>
                </g>
            </g>
        </g>
    </g>
</svg>