<?xml version="1.0" encoding="UTF-8"?>
<svg width="606px" height="299px" viewBox="0 0 606 299" version="1.1" xmlns="http://www.w3.org/2000/svg" xmlns:xlink="http://www.w3.org/1999/xlink">
    <!-- Generator: Sketch 54.1 (76490) - https://sketchapp.com -->
    <title>Picture</title>
    <desc>Created with Sketch.</desc>
    <defs>
        <rect id="path-1" x="128" y="84" width="350" height="215"></rect>
        <filter x="-0.1%" y="-0.3%" width="100.1%" height="100.5%" filterUnits="objectBoundingBox" id="filter-2">
            <feOffset dx="0" dy="-0.5" in="SourceAlpha" result="shadowOffsetOuter1"></feOffset>
            <feColorMatrix values="0 0 0 0 0.662745098   0 0 0 0 0.662745098   0 0 0 0 0.662745098  0 0 0 1 0" type="matrix" in="shadowOffsetOuter1"></feColorMatrix>
        </filter>
        <linearGradient x1="50%" y1="15.4651814%" x2="50%" y2="44.5110725%" id="linearGradient-3">
            <stop stop-color="#A8A8A8" stop-opacity="0" offset="0%"></stop>
            <stop stop-color="#CCCCCC" offset="100%"></stop>
        </linearGradient>
    </defs>
    <g id="Picture" stroke="none" stroke-width="1" fill="none" fill-rule="evenodd">
        <g id="Rectangle-3">
            <use fill="black" fill-opacity="1" filter="url(#filter-2)" xlink:href="#path-1"></use>
            <use fill="#D5D8DD" fill-rule="evenodd" xlink:href="#path-1"></use>
        </g>
        <path d="M452.692308,116 L452.692308,112.785714 L445.307692,112.785714 L445.307692,116 L441,111.5 L445.307692,107 L445.307692,110.214286 L452.692308,110.214286 L452.692308,107 L457,111.5 L452.692308,116 Z M458.6,101.444444 L454.796,101.444444 L452.6,99 L445.4,99 L443.204,101.444444 L439.4,101.444444 C438.074517,101.444444 437,102.53886 437,103.888889 L437,118.555556 C437,119.905585 438.074517,121 439.4,121 L458.6,121 C459.925483,121 461,119.905585 461,118.555556 L461,103.888889 C461,102.532222 459.92,101.444444 458.6,101.444444 Z" id="Shape" fill="#FFFFFF" fill-rule="nonzero"></path>
        <path d="M323.134765,109.844241 C330.146964,113.886202 336.086005,115.171964 343.175363,129.822561 C353.483922,151.125832 353.370792,155.895057 357.69609,148.46886 C356.870048,150.392549 356.098671,152.296817 356.701522,153.713136 C357.563477,154.583119 358.425439,154.250411 359.287402,153.713136 C358.780594,154.420094 359.464405,157.212141 360.679801,155.072765 C361.542857,153.553586 361.475457,153.518902 361.475457,153.518902 C362.07596,154.859372 361.75516,156.520735 361.873282,157.015086 C363.066769,158.44915 364.26025,156.00732 365.453737,153.518902 C365.719802,155.612235 365.542221,157.90279 363.862425,160.122797 C367.826821,161.728721 367.915079,157.122706 367.045049,153.907365 C368.364042,155.96949 369.411314,158.280367 368.636368,162.259348 C369.100499,163.040315 369.56463,161.30217 370.028761,160.705496 C369.894738,161.8535 370.026681,163.920684 368.934737,164.250223 C369.64444,164.494925 370.545546,165.197211 371.868713,163.76465 C372.003378,167.251001 370.944901,169.628301 365.951025,168.620452 C367.437345,169.568444 367.67409,176.251233 370.426593,171.388266 C371.411373,172.838768 369.696813,173.806439 368.885009,176.778211 C368.398496,183.742474 363.765508,182.833906 361.127361,185.712895 C360.446759,188.837711 359.874026,189.716027 358.856449,192.025274 C358.207544,193.497852 362.797348,196.765018 362.976417,190.40347 C363.730292,196.808207 357.930084,194.389031 355.879584,197.417475 C355.14422,198.108023 354.328156,198.648873 353.419434,199.017809 C347.190741,202.691072 343.784341,212.660881 341.086763,213.876581 C340.180213,214.775518 334.377932,214.669697 331.339972,214.167928 C329.811046,217.712923 328.607552,219.447418 326.416845,221.354527 C323.9994,226.400313 322.09575,238.085032 329.549748,243.885472 C341.922501,253.513513 345.698596,256.34767 361.525178,259.569734 C396.616193,266.713764 393.351432,284.586871 400,299 L206,298.845993 C211.732857,285.234842 209.051169,267.169334 244.364793,258.841364 C257.196764,255.815217 262.454264,252.974353 273.257064,244.031149 C279.995089,238.453005 278.629161,227.069424 277.135888,220.917504 C271.765349,220.345547 268.983688,218.930947 267.985834,216.935742 C265.41338,216.937358 262.622079,217.387709 262.615161,212.128496 C255.651834,215.250295 252.504574,210.020163 249.287918,204.941897 C246.104863,203.425402 242.162697,204.001838 241.082716,196.687025 L240.187597,194.30767 C238.716115,192.302915 239.398063,189.489414 239.541127,186.878287 C240.485972,188.257302 241.032984,188.597393 241.977829,189.111959 C234.886165,180.934797 239.119863,175.947677 238.148728,169.494498 C239.90324,170.435519 241.353991,169.963369 242.82321,169.154595 L239.740043,168.474782 C239.740043,168.474782 252.508583,168.243825 245.707466,167.503616 C240.458111,166.932298 240.734615,164.055996 240.734615,164.055996 C242.261407,164.885358 243.630271,165.998691 245.160454,164.687252 C245.150569,162.954388 245.689478,161.551311 247.398233,160.851179 C245.238022,157.764151 248.73994,150.201242 247.099864,146.817888 C248.071636,147.477146 248.725405,149.01621 250.431674,147.643375 C251.520406,144.852306 252.097136,143.841756 253.713757,143.370264 C254.68245,140.583777 256.145168,138.617361 258.437965,138.028876 C258.437965,138.028876 261.434112,128.802841 263.510273,125.54945 C268.569687,117.621253 270.720905,115.914 280.268784,110.087031 C289.663551,104.353506 296.985542,104.02981 301.701774,106.348058 C304.394621,107.671717 306.152478,107.853359 307.370829,107.853359 C310.876686,107.853359 313.575688,104.334212 323.134765,109.844241 Z" id="path1873" fill="#82878D"></path>
        <rect id="Rectangle" stroke="url(#linearGradient-3)" stroke-width="2" x="129" y="1" width="348" height="297"></rect>
        <g id="Chat/Message-Left" transform="translate(143.000000, 23.000000)">
            <g id="B&amp;B-Message">
                <g id="Chat/FirstMessageBg" fill="#FC5D60" fill-opacity="0.232393569">
                    <path d="M154,29.6894466 C154.056449,38.0554397 154.573563,39.7159097 158,42.9291992 C155.509321,42.9291992 152.622126,41.5828746 150.65406,40.4649526 C148.886387,42.0417198 146.555103,43 144,43 L10,43 C4.4771525,43 6.76353751e-16,38.5228475 0,33 L-1.77635684e-15,10 C-2.45271059e-15,4.4771525 4.4771525,9.89631482e-15 10,8.8817842e-15 L144,1.0658141e-14 C149.522847,9.64361041e-15 154,4.4771525 154,10 L154,29.6894466 Z" id="Combined-Shape" transform="translate(79.000000, 21.500000) scale(-1, 1) translate(-79.000000, -21.500000) "></path>
                </g>
                <text id="text" font-family="SFUIText-Regular, SF UI Text" font-size="17" font-weight="normal" letter-spacing="-0.409999996"></text>
            </g>
        </g>
        <path d="M301,281 C290.50659,281 282,272.49341 282,262 C282,251.50659 290.50659,243 301,243 C311.49341,243 320,251.50659 320,262 C320,272.49341 311.49341,281 301,281 Z M301,279 C310.388841,279 318,271.388841 318,262 C318,252.611159 310.388841,245 301,245 C291.611159,245 284,252.611159 284,262 C284,271.388841 291.611159,279 301,279 Z M301,276 C293.268014,276 287,269.731986 287,262 C287,254.268014 293.268014,248 301,248 C308.731986,248 315,254.268014 315,262 C315,269.731986 308.731986,276 301,276 Z" id="Oval-2" fill="#FFFFFF"></path>
    </g>
</svg>